<svg width="30" height="32" viewBox="0 0 30 32" fill="none" xmlns="http://www.w3.org/2000/svg">
<path d="M1.806 25.331C2.36133 25.331 2.78833 25.4897 3.087 25.807C3.39033 26.1197 3.542 26.5723 3.542 27.165V28.313C3.542 28.8823 3.39033 29.321 3.087 29.629C2.78833 29.9323 2.34967 30.084 1.771 30.084C1.37433 30.084 0.959 30.07 0.525 30.042V25.359C0.945 25.3403 1.372 25.331 1.806 25.331ZM1.771 25.835C1.62633 25.835 1.40933 25.8397 1.12 25.849V29.531C1.39533 29.559 1.61233 29.573 1.771 29.573C2.13033 29.573 2.415 29.4703 2.625 29.265C2.83967 29.055 2.947 28.754 2.947 28.362V27.123C2.947 26.6983 2.84433 26.3787 2.639 26.164C2.43367 25.9447 2.14433 25.835 1.771 25.835ZM5.08402 26.584V30H4.48902V26.584H5.08402ZM4.78302 25.205C4.90902 25.205 5.00469 25.233 5.07002 25.289C5.14002 25.345 5.17502 25.4243 5.17502 25.527V25.73C5.17502 25.8327 5.14002 25.912 5.07002 25.968C5.00469 26.0193 4.90902 26.045 4.78302 26.045C4.66169 26.045 4.56602 26.0193 4.49602 25.968C4.43069 25.912 4.39802 25.8327 4.39802 25.73V25.527C4.39802 25.4243 4.43069 25.345 4.49602 25.289C4.56602 25.233 4.66169 25.205 4.78302 25.205ZM7.55229 26.5C7.61762 26.5 7.66896 26.5047 7.70629 26.514V27.186C7.63629 27.172 7.54529 27.165 7.43329 27.165C7.10662 27.165 6.84762 27.3283 6.65629 27.655V30H6.06129V26.584H6.62129V27.095C6.74729 26.9037 6.88729 26.7567 7.04129 26.654C7.19996 26.5513 7.37029 26.5 7.55229 26.5ZM9.4098 26.5C9.8018 26.5 10.1005 26.6073 10.3058 26.822C10.5111 27.0367 10.6138 27.347 10.6138 27.753V28.474H8.8148V28.887C8.8148 29.125 8.8708 29.2977 8.9828 29.405C9.09947 29.5077 9.28147 29.559 9.5288 29.559C9.77147 29.559 10.0748 29.5217 10.4388 29.447L10.4528 29.965C10.0188 30.0443 9.70847 30.084 9.5218 30.084C9.0598 30.084 8.72614 29.9837 8.5208 29.783C8.32014 29.5823 8.2198 29.272 8.2198 28.852V27.753C8.2198 27.347 8.3178 27.0367 8.5138 26.822C8.71447 26.6073 9.01314 26.5 9.4098 26.5ZM9.4098 26.997C9.2278 26.997 9.08314 27.0553 8.9758 27.172C8.86847 27.284 8.8148 27.4473 8.8148 27.662V27.998H10.0188V27.683C10.0188 27.459 9.9628 27.2887 9.8508 27.172C9.74347 27.0553 9.59647 26.997 9.4098 26.997ZM12.6177 26.5C12.8277 26.5 13.0657 26.5303 13.3317 26.591L13.3177 27.116C13.047 27.0553 12.8137 27.025 12.6177 27.025C12.3983 27.025 12.2303 27.0857 12.1137 27.207C12.0017 27.3283 11.9457 27.501 11.9457 27.725V28.852C11.9457 29.0853 12.004 29.2627 12.1207 29.384C12.242 29.5007 12.4077 29.559 12.6177 29.559C12.7483 29.559 12.8627 29.552 12.9607 29.538C13.0587 29.524 13.1777 29.5007 13.3177 29.468L13.3317 29.993C13.047 30.0537 12.8067 30.084 12.6107 30.084C11.7707 30.084 11.3507 29.6593 11.3507 28.81V27.774C11.3507 26.9247 11.773 26.5 12.6177 26.5ZM14.9166 26.584H15.8266V27.074H14.9166V29.076C14.9166 29.2533 14.9516 29.3817 15.0216 29.461C15.0962 29.5357 15.2106 29.573 15.3646 29.573C15.5606 29.573 15.7519 29.5497 15.9386 29.503L15.9526 30C15.7472 30.056 15.5606 30.084 15.3926 30.084C15.0192 30.084 14.7462 30.0023 14.5736 29.839C14.4056 29.671 14.3216 29.4003 14.3216 29.027V27.074H13.8316V26.584H14.3216L14.4336 25.674H14.9166V26.584ZM17.7438 26.5C18.1591 26.5 18.4671 26.612 18.6678 26.836C18.8731 27.0553 18.9758 27.368 18.9758 27.774V28.81C18.9758 29.216 18.8731 29.531 18.6678 29.755C18.4671 29.9743 18.1591 30.084 17.7438 30.084C17.3285 30.084 17.0181 29.9743 16.8128 29.755C16.6121 29.531 16.5118 29.216 16.5118 28.81V27.774C16.5118 27.368 16.6121 27.0553 16.8128 26.836C17.0181 26.612 17.3285 26.5 17.7438 26.5ZM17.7438 26.997C17.5431 26.997 17.3868 27.06 17.2748 27.186C17.1628 27.312 17.1068 27.4917 17.1068 27.725V28.859C17.1068 29.0923 17.1628 29.272 17.2748 29.398C17.3868 29.524 17.5431 29.587 17.7438 29.587C17.9445 29.587 18.1008 29.524 18.2128 29.398C18.3248 29.272 18.3808 29.0923 18.3808 28.859V27.718C18.3808 27.4847 18.3248 27.3073 18.2128 27.186C18.1008 27.06 17.9445 26.997 17.7438 26.997ZM21.3746 26.5C21.4399 26.5 21.4912 26.5047 21.5286 26.514V27.186C21.4586 27.172 21.3676 27.165 21.2556 27.165C20.9289 27.165 20.6699 27.3283 20.4786 27.655V30H19.8836V26.584H20.4436V27.095C20.5696 26.9037 20.7096 26.7567 20.8636 26.654C21.0222 26.5513 21.1926 26.5 21.3746 26.5ZM22.7549 26.584V30H22.1599V26.584H22.7549ZM22.4539 25.205C22.5799 25.205 22.6756 25.233 22.7409 25.289C22.8109 25.345 22.8459 25.4243 22.8459 25.527V25.73C22.8459 25.8327 22.8109 25.912 22.7409 25.968C22.6756 26.0193 22.5799 26.045 22.4539 26.045C22.3326 26.045 22.2369 26.0193 22.1669 25.968C22.1016 25.912 22.0689 25.8327 22.0689 25.73V25.527C22.0689 25.4243 22.1016 25.345 22.1669 25.289C22.2369 25.233 22.3326 25.205 22.4539 25.205ZM24.8522 26.5C25.2442 26.5 25.5429 26.6073 25.7482 26.822C25.9535 27.0367 26.0562 27.347 26.0562 27.753V28.474H24.2572V28.887C24.2572 29.125 24.3132 29.2977 24.4252 29.405C24.5419 29.5077 24.7239 29.559 24.9712 29.559C25.2139 29.559 25.5172 29.5217 25.8812 29.447L25.8952 29.965C25.4612 30.0443 25.1509 30.084 24.9642 30.084C24.5022 30.084 24.1685 29.9837 23.9632 29.783C23.7625 29.5823 23.6622 29.272 23.6622 28.852V27.753C23.6622 27.347 23.7602 27.0367 23.9562 26.822C24.1569 26.6073 24.4555 26.5 24.8522 26.5ZM24.8522 26.997C24.6702 26.997 24.5255 27.0553 24.4182 27.172C24.3109 27.284 24.2572 27.4473 24.2572 27.662V27.998H25.4612V27.683C25.4612 27.459 25.4052 27.2887 25.2932 27.172C25.1859 27.0553 25.0389 26.997 24.8522 26.997ZM27.843 26.5C28.039 26.5 28.2747 26.528 28.55 26.584L28.536 27.088C28.2934 27.032 28.0717 27.004 27.871 27.004C27.451 27.004 27.241 27.1393 27.241 27.41V27.473C27.241 27.557 27.262 27.6247 27.304 27.676C27.3507 27.7273 27.4324 27.781 27.549 27.837L28.207 28.145C28.6037 28.3317 28.802 28.6047 28.802 28.964V29.118C28.7974 29.44 28.6994 29.6827 28.508 29.846C28.3214 30.0047 28.025 30.084 27.619 30.084C27.409 30.084 27.108 30.035 26.716 29.937L26.744 29.405C27.094 29.5077 27.381 29.559 27.605 29.559C27.8337 29.559 27.9924 29.5287 28.081 29.468C28.1697 29.4027 28.214 29.2977 28.214 29.153V29.083C28.214 28.971 28.1907 28.8823 28.144 28.817C28.102 28.7517 28.0297 28.6957 27.927 28.649L27.248 28.348C27.0427 28.2547 26.891 28.1427 26.793 28.012C26.6997 27.8813 26.653 27.7297 26.653 27.557V27.459C26.6624 27.1417 26.7604 26.9037 26.947 26.745C27.1384 26.5817 27.437 26.5 27.843 26.5Z" fill="white"/>
<path d="M15 17L16 15V9.858C17.721 9.411 19 7.858 19 6C19 3.794 17.206 2 15 2C12.794 2 11 3.794 11 6C11 7.858 12.279 9.411 14 9.858V15L15 17ZM13 6C13 4.897 13.897 4 15 4C16.103 4 17 4.897 17 6C17 7.103 16.103 8 15 8C13.897 8 13 7.103 13 6Z" fill="white"/>
<path d="M19.267 10.563L18.734 12.491C21.325 13.207 23 14.584 23 16C23 17.892 19.715 20 15 20C10.285 20 7 17.892 7 16C7 14.584 8.675 13.207 11.267 12.49L10.734 10.562C7.197 11.54 5 13.623 5 16C5 19.364 9.393 22 15 22C20.607 22 25 19.364 25 16C25 13.623 22.803 11.54 19.267 10.563Z" fill="white"/>
</svg>
