<svg width="22" height="30" viewBox="0 0 22 30" fill="none" xmlns="http://www.w3.org/2000/svg">
<path d="M1.736 23.331C2.28667 23.331 2.695 23.443 2.961 23.667C3.23167 23.8863 3.367 24.2013 3.367 24.612V24.78C3.367 25.2187 3.23633 25.557 2.975 25.795C2.71367 26.033 2.31933 26.152 1.792 26.152C1.582 26.152 1.358 26.1333 1.12 26.096V28H0.525V23.366C0.921667 23.3427 1.32533 23.331 1.736 23.331ZM1.722 23.835C1.51667 23.835 1.316 23.8397 1.12 23.849V25.585C1.4 25.6223 1.61467 25.641 1.764 25.641C2.436 25.641 2.772 25.3447 2.772 24.752V24.633C2.772 24.367 2.688 24.1687 2.52 24.038C2.352 23.9027 2.086 23.835 1.722 23.835ZM5.5562 24.5C5.62153 24.5 5.67286 24.5047 5.7102 24.514V25.186C5.6402 25.172 5.5492 25.165 5.4372 25.165C5.11053 25.165 4.85153 25.3283 4.6602 25.655V28H4.0652V24.584H4.6252V25.095C4.7512 24.9037 4.8912 24.7567 5.0452 24.654C5.20386 24.5513 5.3742 24.5 5.5562 24.5ZM7.45571 24.5C7.87104 24.5 8.17904 24.612 8.37971 24.836C8.58504 25.0553 8.68771 25.368 8.68771 25.774V26.81C8.68771 27.216 8.58504 27.531 8.37971 27.755C8.17904 27.9743 7.87104 28.084 7.45571 28.084C7.04038 28.084 6.73004 27.9743 6.52471 27.755C6.32404 27.531 6.22371 27.216 6.22371 26.81V25.774C6.22371 25.368 6.32404 25.0553 6.52471 24.836C6.73004 24.612 7.04038 24.5 7.45571 24.5ZM7.45571 24.997C7.25504 24.997 7.09871 25.06 6.98671 25.186C6.87471 25.312 6.81871 25.4917 6.81871 25.725V26.859C6.81871 27.0923 6.87471 27.272 6.98671 27.398C7.09871 27.524 7.25504 27.587 7.45571 27.587C7.65638 27.587 7.81271 27.524 7.92471 27.398C8.03671 27.272 8.09271 27.0923 8.09271 26.859V25.718C8.09271 25.4847 8.03671 25.3073 7.92471 25.186C7.81271 25.06 7.65638 24.997 7.45571 24.997ZM9.88947 23.205C10.0155 23.205 10.1111 23.233 10.1765 23.289C10.2465 23.345 10.2815 23.4243 10.2815 23.527V23.73C10.2815 23.8327 10.2465 23.912 10.1765 23.968C10.1111 24.0193 10.0155 24.045 9.88947 24.045C9.76814 24.045 9.67247 24.0193 9.60247 23.968C9.53714 23.912 9.50447 23.8327 9.50447 23.73V23.527C9.50447 23.4243 9.53714 23.345 9.60247 23.289C9.67247 23.233 9.76814 23.205 9.88947 23.205ZM10.1905 28.322C10.1905 28.6767 10.1041 28.9403 9.93147 29.113C9.76347 29.2903 9.4928 29.379 9.11947 29.379C9.04947 29.379 8.9748 29.3743 8.89547 29.365C8.81147 29.3557 8.74614 29.3463 8.69947 29.337V28.84C8.9048 28.8587 9.05414 28.868 9.14747 28.868C9.30147 28.868 9.41347 28.8283 9.48347 28.749C9.55814 28.6697 9.59547 28.5437 9.59547 28.371V24.584H10.1905V28.322ZM12.2877 24.5C12.6797 24.5 12.9784 24.6073 13.1837 24.822C13.3891 25.0367 13.4917 25.347 13.4917 25.753V26.474H11.6927V26.887C11.6927 27.125 11.7487 27.2977 11.8607 27.405C11.9774 27.5077 12.1594 27.559 12.4067 27.559C12.6494 27.559 12.9527 27.5217 13.3167 27.447L13.3307 27.965C12.8967 28.0443 12.5864 28.084 12.3997 28.084C11.9377 28.084 11.6041 27.9837 11.3987 27.783C11.1981 27.5823 11.0977 27.272 11.0977 26.852V25.753C11.0977 25.347 11.1957 25.0367 11.3917 24.822C11.5924 24.6073 11.8911 24.5 12.2877 24.5ZM12.2877 24.997C12.1057 24.997 11.9611 25.0553 11.8537 25.172C11.7464 25.284 11.6927 25.4473 11.6927 25.662V25.998H12.8967V25.683C12.8967 25.459 12.8407 25.2887 12.7287 25.172C12.6214 25.0553 12.4744 24.997 12.2877 24.997ZM15.4956 24.5C15.7056 24.5 15.9436 24.5303 16.2096 24.591L16.1956 25.116C15.9249 25.0553 15.6916 25.025 15.4956 25.025C15.2763 25.025 15.1083 25.0857 14.9916 25.207C14.8796 25.3283 14.8236 25.501 14.8236 25.725V26.852C14.8236 27.0853 14.8819 27.2627 14.9986 27.384C15.1199 27.5007 15.2856 27.559 15.4956 27.559C15.6263 27.559 15.7406 27.552 15.8386 27.538C15.9366 27.524 16.0556 27.5007 16.1956 27.468L16.2096 27.993C15.9249 28.0537 15.6846 28.084 15.4886 28.084C14.6486 28.084 14.2286 27.6593 14.2286 26.81V25.774C14.2286 24.9247 14.6509 24.5 15.4956 24.5ZM17.7945 24.584H18.7045V25.074H17.7945V27.076C17.7945 27.2533 17.8295 27.3817 17.8995 27.461C17.9742 27.5357 18.0885 27.573 18.2425 27.573C18.4385 27.573 18.6298 27.5497 18.8165 27.503L18.8305 28C18.6252 28.056 18.4385 28.084 18.2705 28.084C17.8972 28.084 17.6242 28.0023 17.4515 27.839C17.2835 27.671 17.1995 27.4003 17.1995 27.027V25.074H16.7095V24.584H17.1995L17.3115 23.674H17.7945V24.584ZM20.4397 24.5C20.6357 24.5 20.8714 24.528 21.1467 24.584L21.1327 25.088C20.8901 25.032 20.6684 25.004 20.4677 25.004C20.0477 25.004 19.8377 25.1393 19.8377 25.41V25.473C19.8377 25.557 19.8587 25.6247 19.9007 25.676C19.9474 25.7273 20.0291 25.781 20.1457 25.837L20.8037 26.145C21.2004 26.3317 21.3987 26.6047 21.3987 26.964V27.118C21.3941 27.44 21.2961 27.6827 21.1047 27.846C20.9181 28.0047 20.6217 28.084 20.2157 28.084C20.0057 28.084 19.7047 28.035 19.3127 27.937L19.3407 27.405C19.6907 27.5077 19.9777 27.559 20.2017 27.559C20.4304 27.559 20.5891 27.5287 20.6777 27.468C20.7664 27.4027 20.8107 27.2977 20.8107 27.153V27.083C20.8107 26.971 20.7874 26.8823 20.7407 26.817C20.6987 26.7517 20.6264 26.6957 20.5237 26.649L19.8447 26.348C19.6394 26.2547 19.4877 26.1427 19.3897 26.012C19.2964 25.8813 19.2497 25.7297 19.2497 25.557V25.459C19.2591 25.1417 19.3571 24.9037 19.5437 24.745C19.7351 24.5817 20.0337 24.5 20.4397 24.5Z" fill="white"/>
<path d="M8.30002 0.999939H2.9C2.40295 0.999939 2 1.40288 2 1.89994V7.29996C2 7.79702 2.40295 8.19996 2.9 8.19996H8.30002C8.79708 8.19996 9.20002 7.79702 9.20002 7.29996V1.89994C9.20002 1.40288 8.79708 0.999939 8.30002 0.999939Z" stroke="white" stroke-width="2" stroke-linejoin="round"/>
<path d="M8.30002 11.8H2.9C2.40295 11.8 2 12.2029 2 12.7V18.1C2 18.5971 2.40295 19 2.9 19H8.30002C8.79708 19 9.20002 18.5971 9.20002 18.1V12.7C9.20002 12.2029 8.79708 11.8 8.30002 11.8Z" stroke="white" stroke-width="2" stroke-linejoin="round"/>
<path d="M19.1001 0.999939H13.7001C13.203 0.999939 12.8 1.40288 12.8 1.89994V7.29996C12.8 7.79702 13.203 8.19996 13.7001 8.19996H19.1001C19.5971 8.19996 20.0001 7.79702 20.0001 7.29996V1.89994C20.0001 1.40288 19.5971 0.999939 19.1001 0.999939Z" stroke="white" stroke-width="2" stroke-linejoin="round"/>
<path d="M12.8 11.8H20.0001" stroke="white" stroke-width="2" stroke-linecap="round" stroke-linejoin="round"/>
<path d="M16.4 15.4H20" stroke="white" stroke-width="2" stroke-linecap="round" stroke-linejoin="round"/>
<path d="M12.8 19H20.0001" stroke="white" stroke-width="2" stroke-linecap="round" stroke-linejoin="round"/>
</svg>
